<?xml version="1.0" encoding="UTF-8" standalone="no"?>
<!DOCTYPE svg PUBLIC "-//W3C//DTD SVG 1.1//EN" "http://www.w3.org/Graphics/SVG/1.1/DTD/svg11.dtd">
<svg width="100%" height="100%" viewBox="0 0 56 52" version="1.1" xmlns="http://www.w3.org/2000/svg" xmlns:xlink="http://www.w3.org/1999/xlink" xml:space="preserve" xmlns:serif="http://www.serif.com/" style="fill-rule:evenodd;clip-rule:evenodd;stroke-linejoin:round;stroke-miterlimit:2;">
    <g transform="matrix(1,0,0,1,-1427.68,-1514.97)">
        <g transform="matrix(1,0,0,1,810,0)">
            <g transform="matrix(1,0,0,1,671.77,1566.42)">
                <path d="M0,-3.381L-52.925,-3.381C-53.57,-3.381 -54.093,-2.858 -54.093,-2.212L-54.093,-1.169C-54.093,-0.523 -53.57,0 -52.925,0L0,0C0.646,0 1.169,-0.523 1.169,-1.169L1.169,-2.212C1.169,-2.858 0.646,-3.381 0,-3.381" style="fill:rgb(39,162,200);fill-rule:nonzero;"/>
            </g>
        </g>
        <g transform="matrix(1,0,0,1,810,0)">
            <g transform="matrix(1,0,0,1,645.308,1538.66)">
                <path d="M0,-21.074C-1.412,-21.074 -2.673,-15.964 -3.815,-15.134C-4.957,-14.304 -10.207,-14.684 -10.643,-13.341C-11.079,-11.999 -6.609,-9.22 -6.173,-7.878C-5.737,-6.535 -7.72,-1.659 -6.578,-0.83C-5.435,0 -1.412,-3.393 0,-3.393C1.412,-3.393 5.436,0 6.578,-0.83C7.72,-1.659 5.737,-6.535 6.173,-7.878C6.609,-9.22 11.079,-11.999 10.643,-13.341C10.207,-14.684 4.957,-14.304 3.815,-15.134C2.673,-15.964 1.412,-21.074 0,-21.074" style="fill:rgb(39,162,200);fill-rule:nonzero;"/>
            </g>
        </g>
        <g transform="matrix(1,0,0,1,810,0)">
            <g transform="matrix(1,0,0,1,671.77,1543.47)">
                <path d="M0,16.956L-52.925,16.956C-53.57,16.956 -54.093,17.479 -54.093,18.125L-54.093,19.168C-54.093,19.814 -53.57,20.337 -52.925,20.337L0,20.337C0.646,20.337 1.169,19.814 1.169,19.168L1.169,18.125C1.169,17.479 0.646,16.956 0,16.956M-14.485,10.85C-15.205,10.85 -15.789,11.463 -15.789,12.218L-15.789,18.969C-15.789,19.724 -15.205,20.337 -14.485,20.337L-0.136,20.337C0.585,20.337 1.169,19.724 1.169,18.969L1.169,12.218C1.169,11.463 0.585,10.85 -0.136,10.85L-14.485,10.85ZM-52.789,6.106C-53.509,6.106 -54.093,6.719 -54.093,7.475L-54.093,18.969C-54.093,19.724 -53.509,20.337 -52.789,20.337L-38.44,20.337C-37.719,20.337 -37.135,19.724 -37.135,18.969L-37.135,7.475C-37.135,6.719 -37.719,6.106 -38.44,6.106L-52.789,6.106ZM-33.918,-3.381C-34.674,-3.381 -35.287,-2.768 -35.287,-2.012L-35.287,18.969C-35.287,19.724 -34.674,20.337 -33.918,20.337L-18.867,20.337C-18.111,20.337 -17.499,19.724 -17.499,18.969L-17.499,-2.012C-17.499,-2.768 -18.111,-3.381 -18.867,-3.381L-33.918,-3.381Z" style="fill:white;fill-rule:nonzero;"/>
            </g>
        </g>
        <g transform="matrix(1,0,0,1,810,0)">
            <g transform="matrix(1,0,0,1,645.308,1536.05)">
                <path d="M0,-21.074C-1.412,-21.074 -2.673,-15.964 -3.815,-15.134C-4.957,-14.304 -10.207,-14.684 -10.643,-13.341C-11.079,-11.999 -6.609,-9.22 -6.173,-7.878C-5.737,-6.535 -7.72,-1.659 -6.578,-0.83C-5.435,0 -1.412,-3.393 0,-3.393C1.412,-3.393 5.436,0 6.578,-0.83C7.72,-1.659 5.737,-6.535 6.173,-7.878C6.609,-9.22 11.079,-11.999 10.643,-13.341C10.207,-14.684 4.957,-14.304 3.815,-15.134C2.673,-15.964 1.412,-21.074 0,-21.074" style="fill:white;fill-rule:nonzero;"/>
            </g>
        </g>
        <g transform="matrix(1,0,0,1,810,0)">
            <g transform="matrix(1,0,0,1,643.271,1544.75)">
                <path d="M0,6.019L1.669,6.019L1.669,1.639C1.669,1.424 1.675,1.2 1.687,0.965L0.703,1.782C0.64,1.833 0.576,1.87 0.513,1.892C0.449,1.914 0.387,1.925 0.328,1.925C0.224,1.925 0.132,1.902 0.051,1.856C-0.031,1.811 -0.091,1.762 -0.131,1.71L-0.715,0.936L1.99,-1.335L3.516,-1.335L3.516,6.019L4.946,6.019L4.946,7.354L0,7.354L0,6.019Z" style="fill:rgb(39,162,200);fill-rule:nonzero;"/>
            </g>
        </g>
    </g>
</svg>
