<?xml version="1.0" encoding="UTF-8" standalone="no"?>
<!DOCTYPE svg PUBLIC "-//W3C//DTD SVG 1.1//EN" "http://www.w3.org/Graphics/SVG/1.1/DTD/svg11.dtd">
<svg width="100%" height="100%" viewBox="0 0 54 52" version="1.1" xmlns="http://www.w3.org/2000/svg" xmlns:xlink="http://www.w3.org/1999/xlink" xml:space="preserve" xmlns:serif="http://www.serif.com/" style="fill-rule:evenodd;clip-rule:evenodd;stroke-linejoin:round;stroke-miterlimit:2;">
    <g transform="matrix(1,0,0,1,-858.763,-1515.34)">
        <g transform="matrix(1,0,0,1,810,0)">
            <g transform="matrix(1,0,0,1,68.4545,1566.42)">
                <path d="M0,-0.029L-0.005,-0.029L-0.005,-0.023C-0.005,0 -0.001,-0.029 0,-0.029" style="fill:rgb(1,152,25);fill-rule:nonzero;"/>
            </g>
        </g>
        <g transform="matrix(1,0,0,1,810,0)">
            <g transform="matrix(1,0,0,1,100.807,1540.03)">
                <path d="M0,4.041L-9.614,-6.496L-22.464,-20.569C-24.086,-22.343 -26.88,-22.347 -28.502,-20.572L-41.352,-6.508L-50.966,4.042C-53.363,6.666 -51.502,10.915 -47.947,10.915L-43.968,10.915L-43.968,20.085C-43.968,23.577 -41.167,26.329 -37.675,26.329L-32.469,26.329L-32.469,17.738C-32.469,16.347 -31.218,15.319 -29.826,15.319L-21.14,15.319C-19.748,15.319 -18.768,16.347 -18.768,17.738L-18.768,26.364C-18.768,26.388 -18.613,26.329 -18.613,26.329L-13.291,26.329C-9.799,26.329 -6.78,23.577 -6.78,20.085L-6.78,10.915L-3.019,10.915C0.536,10.915 2.397,6.665 0,4.041" style="fill:rgb(39,162,200);fill-rule:nonzero;"/>
            </g>
        </g>
        <g transform="matrix(1,0,0,1,810,0)">
            <g transform="matrix(1,0,0,1,68.4545,1563.64)">
                <path d="M0,-0.029L-0.005,-0.029L-0.005,-0.023C-0.005,0 -0.001,-0.029 0,-0.029" style="fill:rgb(251,251,251);fill-rule:nonzero;"/>
            </g>
        </g>
        <g transform="matrix(1,0,0,1,810,0)">
            <g transform="matrix(1,0,0,1,100.807,1537.34)">
                <path d="M0,3.872L-9.614,-6.626L-22.464,-20.678C-24.086,-22.453 -26.88,-22.447 -28.502,-20.672L-41.352,-6.603L-50.966,3.87C-53.363,6.494 -51.502,10.667 -47.947,10.667L-43.968,10.667L-43.968,19.995C-43.968,23.487 -41.167,26.325 -37.675,26.325L-32.469,26.325L-32.469,17.649C-32.469,16.257 -31.218,15.071 -29.826,15.071L-21.14,15.071C-19.748,15.071 -18.768,16.257 -18.768,17.649L-18.768,26.274C-18.768,26.298 -18.613,26.325 -18.613,26.325L-13.291,26.325C-9.799,26.325 -6.78,23.487 -6.78,19.995L-6.78,10.667L-3.019,10.667C0.536,10.667 2.397,6.496 0,3.872" style="fill:rgb(251,251,251);fill-rule:nonzero;"/>
            </g>
        </g>
    </g>
</svg>
