<?xml version="1.0" encoding="UTF-8" standalone="no"?>
<!DOCTYPE svg PUBLIC "-//W3C//DTD SVG 1.1//EN" "http://www.w3.org/Graphics/SVG/1.1/DTD/svg11.dtd">
<svg width="100%" height="100%" viewBox="0 0 42 30" version="1.1" xmlns="http://www.w3.org/2000/svg" xmlns:xlink="http://www.w3.org/1999/xlink" xml:space="preserve" xmlns:serif="http://www.serif.com/" style="fill-rule:evenodd;clip-rule:evenodd;stroke-linejoin:round;stroke-miterlimit:2;">
    <g transform="matrix(1,0,0,1,-653.062,-36.2797)">
        <g transform="matrix(1,0,0,1,654.692,41.2208)">
            <path d="M0,23.173C-2.161,21.012 -2.161,17.476 0,15.315L15.314,0C17.475,-2.161 21.012,-2.161 23.173,0C25.334,2.161 25.334,5.698 23.173,7.859L7.858,23.173C5.697,25.334 2.161,25.334 0,23.173" style="fill:rgb(254,72,2);fill-rule:nonzero;"/>
        </g>
        <g transform="matrix(1,0,0,1,693.167,41.2208)">
            <path d="M0,23.173C2.161,21.012 2.161,17.476 0,15.315L-15.314,0C-17.475,-2.161 -21.012,-2.161 -23.173,0C-25.334,2.161 -25.334,5.698 -23.173,7.859L-7.858,23.173C-5.697,25.334 -2.161,25.334 0,23.173" style="fill:rgb(254,72,2);fill-rule:nonzero;"/>
        </g>
        <g transform="matrix(1,0,0,1,654.683,37.9005)">
            <path d="M0,23.173C-2.161,21.012 -2.161,17.476 0,15.315L15.314,0C17.475,-2.161 21.012,-2.161 23.173,0C25.334,2.161 25.334,5.698 23.173,7.859L7.858,23.173C5.697,25.334 2.161,25.334 0,23.173" style="fill:rgb(251,251,251);fill-rule:nonzero;"/>
        </g>
        <g transform="matrix(1,0,0,1,693.157,37.9005)">
            <path d="M0,23.173C2.161,21.012 2.161,17.476 0,15.315L-15.314,0C-17.475,-2.161 -21.012,-2.161 -23.173,0C-25.334,2.161 -25.334,5.698 -23.173,7.859L-7.858,23.173C-5.697,25.334 -2.161,25.334 0,23.173" style="fill:rgb(251,251,251);fill-rule:nonzero;"/>
        </g>
    </g>
</svg>
