<?xml version="1.0" encoding="UTF-8" standalone="no"?>
<!DOCTYPE svg PUBLIC "-//W3C//DTD SVG 1.1//EN" "http://www.w3.org/Graphics/SVG/1.1/DTD/svg11.dtd">
<svg width="100%" height="100%" viewBox="0 0 55 52" version="1.1" xmlns="http://www.w3.org/2000/svg" xmlns:xlink="http://www.w3.org/1999/xlink" xml:space="preserve" xmlns:serif="http://www.serif.com/" style="fill-rule:evenodd;clip-rule:evenodd;stroke-linejoin:round;stroke-miterlimit:2;">
    <g transform="matrix(1,0,0,1,-964.939,-1515.14)">
        <g transform="matrix(1,0,0,1,810,0)">
            <g transform="matrix(1,0,0,1,165.941,1566.43)">
                <path d="M0,-41.08L33.286,-41.08C35.464,-41.08 37.229,-38.844 37.229,-36.086L37.229,-4.994C37.229,-2.236 35.464,0 33.286,0L0,0C-2.178,0 -3.943,-2.236 -3.943,-4.994L-3.943,-36.086C-3.943,-38.844 -2.178,-41.08 0,-41.08" style="fill:rgb(39,162,200);fill-rule:nonzero;"/>
            </g>
        </g>
        <g transform="matrix(1,0,0,1,810,0)">
            <g transform="matrix(1,0,0,1,183.173,1533.32)">
                <path d="M0,-2.275C0,-0.633 0.639,0.91 1.8,2.072C1.837,2.108 1.873,2.144 1.91,2.179C3.058,3.272 4.557,3.872 6.147,3.872C9.536,3.872 12.294,1.114 12.294,-2.275L12.294,-6.147L0,-6.147L0,-2.275Z" style="fill:rgb(39,162,200);fill-rule:nonzero;"/>
            </g>
        </g>
        <g transform="matrix(1,0,0,1,810,0)">
            <g transform="matrix(1,0,0,1,169.056,1533.32)">
                <path d="M0,-6.147L0,-2.274C0,-0.633 0.64,0.911 1.801,2.072C2.925,3.197 4.409,3.832 5.993,3.87C6.044,3.872 6.095,3.872 6.147,3.872C9.536,3.872 12.294,1.115 12.294,-2.274L12.294,-6.147L0,-6.147Z" style="fill:rgb(39,162,200);fill-rule:nonzero;"/>
            </g>
        </g>
        <g transform="matrix(1,0,0,1,810,0)">
            <g transform="matrix(1,0,0,1,161.086,1527.17)">
                <path d="M0,10.019C3.389,10.019 6.147,7.262 6.147,3.872L6.147,0L-6.147,0L-6.147,3.872C-6.147,5.514 -5.507,7.058 -4.346,8.219C-3.185,9.38 -1.642,10.019 0,10.019" style="fill:rgb(39,162,200);fill-rule:nonzero;"/>
            </g>
        </g>
        <g transform="matrix(1,0,0,1,810,0)">
            <g transform="matrix(1,0,0,1,197.29,1537.19)">
                <path d="M0,-10.019L0,-6.147C0,-4.505 0.639,-2.961 1.8,-1.8C2.018,-1.582 2.249,-1.383 2.492,-1.203C3.544,-0.422 4.813,0 6.147,0C9.536,0 12.294,-2.757 12.294,-6.147L12.294,-10.019L0,-10.019Z" style="fill:rgb(39,162,200);fill-rule:nonzero;"/>
            </g>
        </g>
        <g transform="matrix(1,0,0,1,810,0)">
            <g transform="matrix(1,0,0,1,158.137,1561.94)">
                <path d="M0,4.494L49.2,4.494C50.441,4.494 51.447,3.488 51.447,2.247C51.447,1.006 50.441,0 49.2,0L0,0C-1.241,0 -2.247,1.006 -2.247,2.247C-2.247,3.488 -1.241,4.494 0,4.494" style="fill:rgb(39,162,200);fill-rule:nonzero;"/>
            </g>
        </g>
        <g transform="matrix(1,0,0,1,810,0)">
            <g transform="matrix(1,0,0,1,183.813,1556.4)">
                <path d="M0,-12.764L13.099,-12.764C13.956,-12.764 14.651,-12.069 14.651,-11.212L14.651,-1.552C14.651,-0.695 13.956,0 13.099,0L0,0C-0.857,0 -1.552,-0.695 -1.552,-1.552L-1.552,-11.212C-1.552,-12.069 -0.857,-12.764 0,-12.764" style="fill:rgb(39,162,200);fill-rule:nonzero;"/>
            </g>
        </g>
        <g transform="matrix(1,0,0,1,810,0)">
            <g transform="matrix(-1,0,0,1,161.767,1527.17)">
                <path d="M-40.988,-9.392L0,-9.392L6.828,0L-47.816,0L-40.988,-9.392Z" style="fill:rgb(39,162,200);fill-rule:nonzero;"/>
            </g>
        </g>
        <g transform="matrix(1,0,0,1,810,0)">
            <g transform="matrix(1,0,0,1,175.848,1561.94)">
                <path d="M0,-18.303L-7.512,-18.303C-8.477,-18.303 -9.259,-17.521 -9.259,-16.556L-9.259,0L1.747,0L1.747,-16.556C1.747,-17.521 0.965,-18.303 0,-18.303" style="fill:rgb(39,162,200);fill-rule:nonzero;"/>
            </g>
        </g>
        <g transform="matrix(1,0,0,1,810,0)">
            <g transform="matrix(1,0,0,1,165.941,1563.79)">
                <path d="M0,-41.08L33.286,-41.08C35.464,-41.08 37.229,-38.844 37.229,-36.086L37.229,-4.994C37.229,-2.236 35.464,0 33.286,0L0,0C-2.178,0 -3.943,-2.236 -3.943,-4.994L-3.943,-36.086C-3.943,-38.844 -2.178,-41.08 0,-41.08" style="fill:rgb(219,243,254);fill-rule:nonzero;"/>
            </g>
        </g>
        <g transform="matrix(1,0,0,1,810,0)">
            <g transform="matrix(1,0,0,1,183.173,1530.68)">
                <path d="M0,-2.275C0,-0.633 0.639,0.91 1.8,2.072C1.837,2.108 1.873,2.144 1.91,2.179C3.058,3.272 4.557,3.872 6.147,3.872C9.536,3.872 12.294,1.114 12.294,-2.275L12.294,-6.147L0,-6.147L0,-2.275Z" style="fill:white;fill-rule:nonzero;"/>
            </g>
        </g>
        <g transform="matrix(1,0,0,1,810,0)">
            <g transform="matrix(1,0,0,1,169.056,1530.68)">
                <path d="M0,-6.147L0,-2.274C0,-0.633 0.64,0.911 1.801,2.072C2.925,3.197 4.409,3.832 5.993,3.87C6.044,3.872 6.095,3.872 6.147,3.872C9.536,3.872 12.294,1.115 12.294,-2.274L12.294,-6.147L0,-6.147Z" style="fill:white;fill-rule:nonzero;"/>
            </g>
        </g>
        <g transform="matrix(1,0,0,1,810,0)">
            <g transform="matrix(1,0,0,1,161.086,1524.53)">
                <path d="M0,10.019C3.389,10.019 6.147,7.262 6.147,3.872L6.147,0L-6.147,0L-6.147,3.872C-6.147,5.514 -5.507,7.058 -4.346,8.219C-3.185,9.38 -1.642,10.019 0,10.019" style="fill:white;fill-rule:nonzero;"/>
            </g>
        </g>
        <g transform="matrix(1,0,0,1,810,0)">
            <g transform="matrix(1,0,0,1,197.29,1534.55)">
                <path d="M0,-10.019L0,-6.147C0,-4.505 0.639,-2.961 1.8,-1.8C2.018,-1.582 2.249,-1.383 2.492,-1.203C3.544,-0.422 4.813,0 6.147,0C9.536,0 12.294,-2.757 12.294,-6.147L12.294,-10.019L0,-10.019Z" style="fill:white;fill-rule:nonzero;"/>
            </g>
        </g>
        <g transform="matrix(1,0,0,1,810,0)">
            <g transform="matrix(1,0,0,1,158.137,1559.29)">
                <path d="M0,4.494L49.2,4.494C50.441,4.494 51.447,3.488 51.447,2.247C51.447,1.006 50.441,0 49.2,0L0,0C-1.241,0 -2.247,1.006 -2.247,2.247C-2.247,3.488 -1.241,4.494 0,4.494" style="fill:white;fill-rule:nonzero;"/>
            </g>
        </g>
        <g transform="matrix(1,0,0,1,810,0)">
            <g transform="matrix(1,0,0,1,183.813,1553.75)">
                <path d="M0,-12.764L13.099,-12.764C13.956,-12.764 14.651,-12.069 14.651,-11.212L14.651,-1.552C14.651,-0.695 13.956,0 13.099,0L0,0C-0.857,0 -1.552,-0.695 -1.552,-1.552L-1.552,-11.212C-1.552,-12.069 -0.857,-12.764 0,-12.764" style="fill:rgb(173,234,253);fill-rule:nonzero;"/>
            </g>
        </g>
        <g transform="matrix(1,0,0,1,810,0)">
            <g transform="matrix(1,0,0,1,200.628,1524.53)">
                <path d="M0,-9.392L-36.733,-9.392C-38.07,-9.392 -39.326,-8.752 -40.112,-7.671L-45.689,0L8.956,0L3.379,-7.671C2.593,-8.752 1.337,-9.392 0,-9.392" style="fill:white;fill-rule:nonzero;"/>
            </g>
        </g>
        <g transform="matrix(1,0,0,1,810,0)">
            <g transform="matrix(1,0,0,1,175.848,1559.29)">
                <path d="M0,-18.303L-7.512,-18.303C-8.477,-18.303 -9.259,-17.521 -9.259,-16.556L-9.259,0L1.747,0L1.747,-16.556C1.747,-17.521 0.965,-18.303 0,-18.303" style="fill:rgb(173,234,253);fill-rule:nonzero;"/>
            </g>
        </g>
    </g>
</svg>
