<?xml version="1.0" encoding="UTF-8" standalone="no"?>
<!DOCTYPE svg PUBLIC "-//W3C//DTD SVG 1.1//EN" "http://www.w3.org/Graphics/SVG/1.1/DTD/svg11.dtd">
<svg width="100%" height="100%" viewBox="0 0 67 52" version="1.1" xmlns="http://www.w3.org/2000/svg" xmlns:xlink="http://www.w3.org/1999/xlink" xml:space="preserve" xmlns:serif="http://www.serif.com/" style="fill-rule:evenodd;clip-rule:evenodd;stroke-linejoin:round;stroke-miterlimit:2;">
    <g transform="matrix(1,0,0,1,-1313.43,-1515.34)">
        <g transform="matrix(1,0,0,1,810,0)">
            <g transform="matrix(1,0,0,1,517.499,1563.96)">
                <path d="M0,-18.574C-0.072,-19.1 -0.113,-19.645 -0.142,-20.196C-8.31,-20.586 -13.827,-21.023 -14.06,-21.042C-14.035,-20.217 -13.942,-19.411 -13.753,-18.639L-6.376,-0.491C-5.774,1.282 -4.169,2.468 -2.369,2.468L4.943,2.468C4.664,1.972 4.444,1.354 4.31,0.644L0,-18.574Z" style="fill:rgb(39,162,200);fill-rule:nonzero;"/>
            </g>
        </g>
        <g transform="matrix(1,0,0,1,810,0)">
            <g transform="matrix(1,0,0,1,556.284,1565.29)">
                <path d="M0,-21.249C-0.03,-20.795 -0.07,-20.348 -0.13,-19.912L-4.44,-0.693C-4.574,0.017 -4.794,0.635 -5.073,1.13L2.239,1.13C4.039,1.13 5.645,-0.055 6.246,-1.829L13.623,-19.977C13.812,-20.749 13.905,-21.554 13.93,-22.379C9.604,-21.837 4.876,-21.476 0,-21.249" style="fill:rgb(39,162,200);fill-rule:nonzero;"/>
            </g>
        </g>
        <g transform="matrix(1,0,0,1,810,0)">
            <g transform="matrix(1,0,0,1,517.32,1519.25)">
                <path d="M0,23.613C-0.158,14.037 2.106,1.65 5.437,-0.899C2.724,-0.712 0.256,-0.435 -1.393,-0.026C-6.945,1.351 -14.167,14.011 -13.881,23.666C-13.648,23.685 -8.131,24.122 0.038,24.512C0.022,24.214 0.005,23.917 0,23.613" style="fill:rgb(39,162,200);fill-rule:nonzero;"/>
            </g>
        </g>
        <g transform="matrix(1,0,0,1,810,0)">
            <g transform="matrix(1,0,0,1,556.334,1519.53)">
                <path d="M0,23.329C-0.007,23.729 -0.024,24.122 -0.049,24.512C4.826,24.285 9.554,23.924 13.881,23.382C14.168,13.727 6.945,1.067 1.393,-0.311C-0.256,-0.72 -2.724,-0.996 -5.437,-1.183C-2.106,1.365 0.159,13.753 0,23.329" style="fill:rgb(39,162,200);fill-rule:nonzero;"/>
            </g>
        </g>
        <g transform="matrix(1,0,0,1,810,0)">
            <g transform="matrix(1,0,0,1,518.38,1566.42)">
                <path d="M0,-17.114L3.429,-1.823C3.563,-1.113 3.784,-0.495 4.062,0L32.832,0C33.11,-0.495 33.33,-1.113 33.465,-1.823L36.872,-17.016C20.156,-15.285 5.993,-16.436 0,-17.114" style="fill:rgb(39,162,200);fill-rule:nonzero;"/>
            </g>
        </g>
        <g transform="matrix(1,0,0,1,810,0)">
            <g transform="matrix(1,0,0,1,556.284,1550.85)">
                <path d="M0,-6.809C-13.651,-6.173 -28.464,-6.594 -38.927,-7.094C-38.898,-6.542 -38.857,-5.998 -38.785,-5.472L-37.904,-1.544C-31.911,-0.867 -17.748,0.285 -1.032,-1.447L-0.13,-5.472C-0.07,-5.908 -0.03,-6.355 0,-6.809" style="fill:rgb(39,162,200);fill-rule:nonzero;"/>
            </g>
        </g>
        <g transform="matrix(1,0,0,1,810,0)">
            <g transform="matrix(1,0,0,1,517.541,1544.68)">
                <path d="M0,-8.263C-0.177,-6.069 -0.255,-3.879 -0.221,-1.82C-0.216,-1.516 -0.199,-1.219 -0.184,-0.921C10.279,-0.421 25.092,0 38.743,-0.636C38.768,-1.025 38.786,-1.419 38.793,-1.819C38.825,-3.792 38.754,-5.884 38.593,-7.985C25.068,-7.445 10.628,-7.802 0,-8.263" style="fill:rgb(39,162,200);fill-rule:nonzero;"/>
            </g>
        </g>
        <g transform="matrix(1,0,0,1,810,0)">
            <g transform="matrix(1,0,0,1,550.896,1536.84)">
                <path d="M0,-18.494C-1.856,-18.622 -3.826,-18.709 -5.731,-18.766L-5.731,-18.854C-5.731,-18.854 -14.152,-18.887 -17.199,-18.862C-20.247,-18.887 -22.408,-18.854 -22.408,-18.854L-22.408,-18.766C-24.313,-18.709 -26.283,-18.622 -28.139,-18.494C-30.754,-16.494 -32.711,-8.432 -33.355,-0.426C-22.727,0.035 -8.288,0.393 5.237,-0.147C4.616,-8.244 2.645,-16.47 0,-18.494" style="fill:rgb(39,162,200);fill-rule:nonzero;"/>
            </g>
        </g>
        <g transform="matrix(1,0,0,1,810,0)">
            <g transform="matrix(1,0,0,1,532.492,1549.4)">
                <path d="M0,-1.528C-0.017,-1.584 -0.034,-1.641 -0.051,-1.697L-0.051,-1.983C-0.051,-5.08 1.914,-7.6 4.33,-7.6C6.746,-7.6 8.711,-5.08 8.711,-1.983L8.711,-1.528L0,-1.528ZM11.773,2.638C11.698,1.228 11.471,-0.162 11.136,-1.528L11.126,-1.528L11.126,-1.983C11.126,-6.381 8.077,-9.959 4.33,-9.959C0.583,-9.959 -2.466,-6.381 -2.466,-1.983L-2.466,-1.528C-2.8,-0.162 -3.027,1.228 -3.103,2.638C-3.153,3.582 -3.141,4.558 -2.777,5.431C-2.212,6.783 -0.866,7.684 0.546,8.076C1.773,8.417 3.059,8.431 4.335,8.4C5.612,8.431 6.898,8.417 8.124,8.076C9.536,7.684 10.883,6.783 11.447,5.431C11.812,4.558 11.824,3.582 11.773,2.638" style="fill:rgb(39,162,200);fill-rule:nonzero;"/>
            </g>
        </g>
        <g transform="matrix(1,0,0,1,810,0)">
            <g transform="matrix(1,0,0,1,538.314,1553.67)">
                <path d="M0,-2.326C0,-3.282 -0.902,-4.027 -1.902,-3.757C-2.376,-3.628 -2.767,-3.248 -2.907,-2.777C-3.134,-2.007 -2.755,-1.301 -2.142,-0.998L-2.802,1.193C-2.878,1.446 -2.688,1.701 -2.424,1.701L-0.555,1.701C-0.29,1.701 -0.101,1.446 -0.177,1.193L-0.836,-0.995C-0.342,-1.237 0,-1.74 0,-2.326" style="fill:rgb(39,162,200);fill-rule:nonzero;"/>
            </g>
        </g>
        <g transform="matrix(1,0,0,1,810,0)">
            <g transform="matrix(1,0,0,1,517.499,1561.32)">
                <path d="M0,-18.574C-0.072,-19.1 -0.113,-19.645 -0.142,-20.196C-8.31,-20.586 -13.827,-21.023 -14.06,-21.042C-14.035,-20.217 -13.942,-19.411 -13.753,-18.639L-6.376,-0.491C-5.774,1.282 -4.169,2.468 -2.369,2.468L4.943,2.468C4.664,1.972 4.444,1.354 4.31,0.644L0,-18.574Z" style="fill:white;fill-rule:nonzero;"/>
            </g>
        </g>
        <g transform="matrix(1,0,0,1,810,0)">
            <g transform="matrix(1,0,0,1,556.284,1562.66)">
                <path d="M0,-21.249C-0.03,-20.795 -0.07,-20.348 -0.13,-19.912L-4.44,-0.693C-4.574,0.017 -4.794,0.635 -5.073,1.13L2.239,1.13C4.039,1.13 5.645,-0.055 6.246,-1.829L13.623,-19.977C13.812,-20.749 13.905,-21.554 13.93,-22.379C9.604,-21.837 4.876,-21.476 0,-21.249" style="fill:white;fill-rule:nonzero;"/>
            </g>
        </g>
        <g transform="matrix(1,0,0,1,810,0)">
            <g transform="matrix(1,0,0,1,517.32,1516.61)">
                <path d="M0,23.613C-0.158,14.037 2.106,1.65 5.437,-0.899C2.724,-0.712 0.256,-0.435 -1.393,-0.026C-6.945,1.351 -14.167,14.011 -13.881,23.666C-13.648,23.685 -8.131,24.122 0.038,24.512C0.022,24.214 0.005,23.917 0,23.613" style="fill:white;fill-rule:nonzero;"/>
            </g>
        </g>
        <g transform="matrix(1,0,0,1,810,0)">
            <g transform="matrix(1,0,0,1,556.334,1516.9)">
                <path d="M0,23.329C-0.007,23.729 -0.024,24.122 -0.049,24.512C4.826,24.285 9.554,23.924 13.881,23.382C14.168,13.727 6.945,1.067 1.393,-0.311C-0.256,-0.72 -2.724,-0.996 -5.437,-1.183C-2.106,1.365 0.159,13.753 0,23.329" style="fill:white;fill-rule:nonzero;"/>
            </g>
        </g>
        <g transform="matrix(1,0,0,1,810,0)">
            <g transform="matrix(1,0,0,1,518.38,1563.79)">
                <path d="M0,-17.114L3.429,-1.823C3.563,-1.113 3.784,-0.495 4.062,0L32.832,0C33.11,-0.495 33.33,-1.113 33.465,-1.823L36.872,-17.016C20.156,-15.285 5.993,-16.436 0,-17.114" style="fill:rgb(173,234,253);fill-rule:nonzero;"/>
            </g>
        </g>
        <g transform="matrix(1,0,0,1,810,0)">
            <g transform="matrix(1,0,0,1,556.284,1548.22)">
                <path d="M0,-6.809C-13.651,-6.173 -28.464,-6.594 -38.927,-7.094C-38.898,-6.542 -38.857,-5.998 -38.785,-5.472L-37.904,-1.544C-31.911,-0.867 -17.748,0.285 -1.032,-1.447L-0.13,-5.472C-0.07,-5.908 -0.03,-6.355 0,-6.809" style="fill:rgb(219,243,254);fill-rule:nonzero;"/>
            </g>
        </g>
        <g transform="matrix(1,0,0,1,810,0)">
            <g transform="matrix(1,0,0,1,517.541,1542.04)">
                <path d="M0,-8.263C-0.177,-6.069 -0.255,-3.879 -0.221,-1.82C-0.216,-1.516 -0.199,-1.219 -0.184,-0.921C10.279,-0.421 25.092,0 38.743,-0.636C38.768,-1.025 38.786,-1.419 38.793,-1.819C38.825,-3.792 38.754,-5.884 38.593,-7.985C25.068,-7.445 10.628,-7.802 0,-8.263" style="fill:rgb(173,234,253);fill-rule:nonzero;"/>
            </g>
        </g>
        <g transform="matrix(1,0,0,1,810,0)">
            <g transform="matrix(1,0,0,1,550.896,1534.21)">
                <path d="M0,-18.494C-1.856,-18.622 -3.826,-18.709 -5.731,-18.766L-5.731,-18.854C-5.731,-18.854 -14.152,-18.887 -17.199,-18.862C-20.247,-18.887 -22.408,-18.854 -22.408,-18.854L-22.408,-18.766C-24.313,-18.709 -26.283,-18.622 -28.139,-18.494C-30.754,-16.494 -32.711,-8.432 -33.355,-0.426C-22.727,0.035 -8.288,0.393 5.237,-0.147C4.616,-8.244 2.645,-16.47 0,-18.494" style="fill:rgb(219,243,254);fill-rule:nonzero;"/>
            </g>
        </g>
        <g transform="matrix(1,0,0,1,810,0)">
            <g transform="matrix(1,0,0,1,532.492,1548)">
                <path d="M0,-1.528C-0.017,-1.584 -0.034,-1.641 -0.051,-1.697L-0.051,-1.983C-0.051,-5.08 1.914,-7.6 4.33,-7.6C6.746,-7.6 8.711,-5.08 8.711,-1.983L8.711,-1.528L0,-1.528ZM11.773,2.638C11.698,1.228 11.471,-0.162 11.136,-1.528L11.126,-1.528L11.126,-1.983C11.126,-6.381 8.077,-9.959 4.33,-9.959C0.583,-9.959 -2.466,-6.381 -2.466,-1.983L-2.466,-1.528C-2.8,-0.162 -3.027,1.228 -3.103,2.638C-3.153,3.582 -3.141,4.558 -2.777,5.431C-2.212,6.783 -0.866,7.684 0.546,8.076C1.773,8.417 3.059,8.431 4.335,8.4C5.612,8.431 6.898,8.417 8.124,8.076C9.536,7.684 10.883,6.783 11.447,5.431C11.812,4.558 11.824,3.582 11.773,2.638" style="fill:rgb(39,162,200);fill-rule:nonzero;"/>
            </g>
        </g>
        <g transform="matrix(1,0,0,1,810,0)">
            <g transform="matrix(1,0,0,1,538.314,1552.27)">
                <path d="M0,-2.326C0,-3.282 -0.902,-4.027 -1.902,-3.757C-2.376,-3.628 -2.767,-3.248 -2.907,-2.777C-3.134,-2.007 -2.755,-1.301 -2.142,-0.998L-2.802,1.193C-2.878,1.446 -2.688,1.701 -2.424,1.701L-0.555,1.701C-0.29,1.701 -0.101,1.446 -0.177,1.193L-0.836,-0.995C-0.342,-1.237 0,-1.74 0,-2.326" style="fill:rgb(39,162,200);fill-rule:nonzero;"/>
            </g>
        </g>
        <g transform="matrix(1,0,0,1,810,0)">
            <g transform="matrix(1,0,0,1,532.492,1546.76)">
                <path d="M0,-1.528C-0.017,-1.584 -0.034,-1.641 -0.051,-1.697L-0.051,-1.983C-0.051,-5.08 1.914,-7.6 4.33,-7.6C6.746,-7.6 8.711,-5.08 8.711,-1.983L8.711,-1.528L0,-1.528ZM11.773,2.638C11.698,1.228 11.471,-0.162 11.136,-1.528L11.126,-1.528L11.126,-1.983C11.126,-6.381 8.077,-9.959 4.33,-9.959C0.583,-9.959 -2.466,-6.381 -2.466,-1.983L-2.466,-1.528C-2.8,-0.162 -3.027,1.228 -3.103,2.638C-3.153,3.582 -3.141,4.558 -2.777,5.431C-2.212,6.783 -0.866,7.684 0.546,8.076C1.773,8.417 3.059,8.431 4.335,8.4C5.612,8.431 6.898,8.417 8.124,8.076C9.536,7.684 10.883,6.783 11.447,5.431C11.812,4.558 11.824,3.582 11.773,2.638" style="fill:white;fill-rule:nonzero;"/>
            </g>
        </g>
        <g transform="matrix(1,0,0,1,810,0)">
            <g transform="matrix(1,0,0,1,538.314,1551.04)">
                <path d="M0,-2.326C0,-3.282 -0.902,-4.027 -1.902,-3.757C-2.376,-3.628 -2.767,-3.248 -2.907,-2.777C-3.134,-2.007 -2.755,-1.301 -2.142,-0.998L-2.802,1.193C-2.878,1.446 -2.688,1.701 -2.424,1.701L-0.555,1.701C-0.29,1.701 -0.101,1.446 -0.177,1.193L-0.836,-0.995C-0.342,-1.237 0,-1.74 0,-2.326" style="fill:rgb(39,162,200);fill-rule:nonzero;"/>
            </g>
        </g>
    </g>
</svg>
